<svg width="1440" height="726" viewBox="0 0 1440 726" fill="none" xmlns="http://www.w3.org/2000/svg">
<path d="M803.771 1H13C1.9543 1 -7 9.9543 -7 21V705C-7 716.046 1.95428 725 13 725H1427C1438.05 725 1447 716.046 1447 705V21C1447 9.9543 1438.05 1 1427 1H1337.49C1329.85 1 1322.99 5.42321 1318.85 11.8442C1279.28 73.0798 1163.51 127 1087 127C940.793 127 846.883 38.999 820.424 8.87018C816.186 4.04359 810.195 1 803.771 1Z" fill="#F8FDF8"/>
<path d="M803.771 1H13C1.9543 1 -7 9.9543 -7 21V705C-7 716.046 1.95428 725 13 725H1427C1438.05 725 1447 716.046 1447 705V21C1447 9.9543 1438.05 1 1427 1H1337.49C1329.85 1 1322.99 5.42321 1318.85 11.8442C1279.28 73.0798 1163.51 127 1087 127C940.793 127 846.883 38.999 820.424 8.87018C816.186 4.04359 810.195 1 803.771 1Z" stroke="#26A522"/>
<path d="M803.771 1H13C1.9543 1 -7 9.9543 -7 21V705C-7 716.046 1.95428 725 13 725H1427C1438.05 725 1447 716.046 1447 705V21C1447 9.9543 1438.05 1 1427 1H1337.49C1329.85 1 1322.99 5.42321 1318.85 11.8442C1279.28 73.0798 1163.51 127 1087 127C940.793 127 846.883 38.999 820.424 8.87018C816.186 4.04359 810.195 1 803.771 1Z" stroke="black" stroke-opacity="0.4"/>
</svg>
