<svg width="24" height="15" viewBox="0 0 24 15" fill="none" xmlns="http://www.w3.org/2000/svg">
<g id="Frame 127101">
<path id="Vector" d="M13.6116 6.02022V6.02031L13.5876 0.122351L23.94 0.0874023L23.9641 5.98522L13.6116 6.02022Z" fill="white"/>
<path id="Vector_2" d="M0.0240389 6.05733V6.05742L0 0.159461L10.3525 0.124512L10.3765 6.02233L0.0240389 6.05733Z" fill="white"/>
<path id="Vector_3" d="M0.0600482 14.9128L0.0360413 9.01496L10.3884 8.97998L10.4125 14.8778L0.0600482 14.9128Z" fill="white"/>
<path id="Vector_4" d="M13.6476 14.8669V14.8669L13.6235 8.96906L23.976 8.93408L24 14.8319L13.6476 14.8669Z" fill="white"/>
<path id="Vector_5" d="M23.976 8.93431V8.93434L23.964 5.98536L13.6116 6.02037L13.5876 0.122559L10.3525 0.133529L10.3764 6.03134L0.0240173 6.06635L0.0360208 9.01527L10.3884 8.98026L10.4125 14.8781L13.6476 14.8672L13.6235 8.96932L23.976 8.93431Z" fill="#FF0000"/>
<path id="Vector_6" d="M18.158 1.625L18.7008 1.65794L19.2589 1.63425L19.1418 2.27573L19.1276 2.74491C19.3429 2.73574 19.5582 2.72652 19.7607 2.70452C19.9632 2.68255 20.153 2.64777 20.3427 2.61306C20.3264 2.77567 20.3102 2.93822 20.3108 3.10726C20.3116 3.27627 20.3292 3.45166 20.3468 3.62701C20.1376 3.59014 19.9283 3.55324 19.726 3.53107C19.5237 3.50887 19.3283 3.50133 19.1329 3.49382C19.1419 3.66545 19.151 3.83708 19.1754 4.02294C19.1999 4.20881 19.2397 4.40898 19.2795 4.60916C19.0947 4.59583 18.9099 4.58256 18.7282 4.58315C18.7236 4.58323 18.7189 4.58323 18.7142 4.58323C18.5281 4.58466 18.3452 4.60096 18.1623 4.61734C18.2014 4.39475 18.2406 4.17223 18.2626 3.98736C18.2847 3.80237 18.2897 3.65509 18.2947 3.50782C18.2499 3.50759 18.205 3.50735 18.1593 3.50753C18.0361 3.50796 17.9073 3.51131 17.7585 3.52577C17.5546 3.54559 17.3129 3.5861 17.0712 3.62672C17.0917 3.46952 17.1122 3.31233 17.1135 3.1439C17.1148 2.97547 17.097 2.79572 17.0791 2.61588C17.3057 2.65231 17.5323 2.68866 17.7374 2.70839C17.9425 2.72815 18.1261 2.7312 18.3096 2.73432C18.298 2.5527 18.2863 2.37115 18.2611 2.18625C18.2358 2.00138 18.1968 1.81319 18.158 1.625Z" fill="#FF0000"/>
<path id="Vector_7" d="M18.2083 10.4878L18.7511 10.5208L19.3092 10.497L19.1922 11.1386L19.178 11.6077C19.3933 11.5985 19.6085 11.5893 19.8111 11.5673C20.0136 11.5454 20.2033 11.5106 20.3931 11.4758C20.3768 11.6385 20.3605 11.8011 20.3612 11.9701C20.3619 12.1391 20.3795 12.3144 20.3972 12.4898C20.1879 12.453 19.9787 12.4161 19.7763 12.3939C19.574 12.3717 19.3786 12.3642 19.1832 12.3566C19.1923 12.5282 19.2013 12.6998 19.2257 12.8857C19.2502 13.0716 19.29 13.2718 19.3298 13.472C19.145 13.4587 18.9602 13.4454 18.7785 13.446C18.7739 13.446 18.7693 13.446 18.7647 13.4461C18.5785 13.4474 18.3956 13.4638 18.2127 13.4802C18.2518 13.2576 18.2909 13.035 18.313 12.8501C18.335 12.6652 18.34 12.5179 18.3451 12.3707C18.3002 12.3704 18.2553 12.3702 18.2098 12.3703C18.0865 12.3707 17.9577 12.3741 17.8089 12.3886C17.6049 12.4084 17.3632 12.4489 17.1216 12.4895C17.1421 12.3323 17.1626 12.1752 17.1639 12.0067C17.1652 11.8383 17.1473 11.6585 17.1295 11.4787C17.3561 11.5151 17.5827 11.5515 17.7878 11.5712C17.9928 11.591 18.1764 11.594 18.36 11.5971C18.3483 11.4155 18.3366 11.2339 18.3114 11.0491C18.2861 10.8642 18.2472 10.676 18.2083 10.4878Z" fill="#FF0000"/>
<path id="Vector_8" d="M4.54041 10.4629L5.08318 10.4959L5.64128 10.4721L5.52428 11.1137L5.51004 11.5828C5.7253 11.5736 5.94057 11.5644 6.14309 11.5424C6.34562 11.5205 6.53538 11.4857 6.72513 11.4509C6.70885 11.6136 6.6926 11.7761 6.69327 11.9452C6.69398 12.1142 6.71163 12.2895 6.72928 12.4649C6.51999 12.4281 6.31073 12.3912 6.10839 12.369C5.90606 12.3468 5.71068 12.3392 5.51527 12.3317C5.52434 12.5033 5.53341 12.6749 5.55783 12.8608C5.58228 13.0467 5.62206 13.2469 5.66187 13.4471C5.47709 13.4338 5.29232 13.4205 5.11057 13.4211C5.10594 13.4211 5.10131 13.4211 5.09672 13.4212C4.9105 13.4225 4.72761 13.4389 4.54472 13.4553C4.58385 13.2327 4.62296 13.0101 4.64505 12.8252C4.66711 12.6403 4.67212 12.493 4.67714 12.3458C4.63225 12.3455 4.58737 12.3453 4.54175 12.3454C4.41846 12.3458 4.28974 12.3492 4.14091 12.3637C3.93701 12.3835 3.69531 12.424 3.45364 12.4646C3.47414 12.3074 3.4946 12.1503 3.49591 11.9818C3.49725 11.8133 3.47937 11.6336 3.46153 11.4538C3.68813 11.4902 3.91472 11.5266 4.11984 11.5463C4.32492 11.566 4.50848 11.5691 4.69205 11.5722C4.68039 11.3906 4.66874 11.209 4.64349 11.0242C4.6182 10.8393 4.57932 10.6511 4.54041 10.4629Z" fill="#FF0000"/>
<path id="Vector_9" d="M4.46521 1.7207L5.00795 1.7537L5.56608 1.72993L5.44905 2.37149L5.43481 2.84058C5.65011 2.83142 5.86537 2.82219 6.0679 2.80028C6.27039 2.77831 6.46015 2.7435 6.64994 2.70873C6.63366 2.87134 6.61738 3.03398 6.61808 3.20293C6.61875 3.37197 6.6364 3.54733 6.65406 3.72277C6.4448 3.68587 6.2355 3.64901 6.03317 3.6268C5.83083 3.6046 5.63546 3.59709 5.44008 3.5895C5.44911 3.76113 5.45818 3.93276 5.48263 4.11862C5.50706 4.30457 5.54687 4.50474 5.58668 4.70484C5.4019 4.69157 5.21712 4.67833 5.03541 4.67891C5.03075 4.67891 5.02612 4.67891 5.02149 4.67899C4.83531 4.68033 4.65241 4.69672 4.46952 4.71304C4.50863 4.49051 4.54777 4.26793 4.56983 4.08303C4.59189 3.89813 4.5969 3.75085 4.60191 3.60358C4.55706 3.60335 4.5122 3.60306 4.46658 3.6032C4.34329 3.60364 4.21454 3.60707 4.06568 3.62153C3.86178 3.64126 3.62008 3.68186 3.37842 3.72239C3.39891 3.5652 3.41938 3.40809 3.42072 3.23966C3.42203 3.07114 3.40418 2.89139 3.38634 2.71164C3.61293 2.74799 3.83953 2.78442 4.04461 2.80409C4.24969 2.82391 4.43326 2.82696 4.61682 2.83002C4.60517 2.64846 4.59355 2.46685 4.56826 2.28201C4.54301 2.09711 4.5041 1.90886 4.46521 1.7207Z" fill="#FF0000"/>
</g>
</svg>
