<svg width="24" height="15" viewBox="0 0 24 15" fill="none" xmlns="http://www.w3.org/2000/svg">
<g id="Frame 127106">
<path id="Vector" fill-rule="evenodd" clip-rule="evenodd" d="M0 14.913H24V13.7661H0V14.913Z" fill="#D1272E"/>
<path id="Vector_2" fill-rule="evenodd" clip-rule="evenodd" d="M0 13.7662H24V12.6284H0V13.7662Z" fill="#FEFEFE"/>
<path id="Vector_3" fill-rule="evenodd" clip-rule="evenodd" d="M0 12.6281H24V11.4907H0V12.6281Z" fill="#D1272E"/>
<path id="Vector_4" fill-rule="evenodd" clip-rule="evenodd" d="M0 11.4911H24V10.3535H0V11.4911Z" fill="#FEFEFE"/>
<path id="Vector_5" fill-rule="evenodd" clip-rule="evenodd" d="M0 10.3534H24V9.20654H0V10.3534Z" fill="#D1272E"/>
<path id="Vector_6" fill-rule="evenodd" clip-rule="evenodd" d="M0 9.20645H24V8.06885H0V9.20645Z" fill="#FEFEFE"/>
<path id="Vector_7" fill-rule="evenodd" clip-rule="evenodd" d="M0 8.06875H24V6.93115H0V8.06875Z" fill="#D1272E"/>
<path id="Vector_8" fill-rule="evenodd" clip-rule="evenodd" d="M0 6.9315H24V5.78467H0V6.9315Z" fill="#FEFEFE"/>
<path id="Vector_9" fill-rule="evenodd" clip-rule="evenodd" d="M0 5.78452H24V4.64697H0V5.78452Z" fill="#D1272E"/>
<path id="Vector_10" fill-rule="evenodd" clip-rule="evenodd" d="M0 4.64682H24V3.50928H0V4.64682Z" fill="#FEFEFE"/>
<path id="Vector_11" fill-rule="evenodd" clip-rule="evenodd" d="M0 3.50935H24V2.36279H0V3.50935Z" fill="#D1272E"/>
<path id="Vector_12" fill-rule="evenodd" clip-rule="evenodd" d="M0 2.36297H24V1.2251H0V2.36297Z" fill="#FEFEFE"/>
<path id="Vector_13" fill-rule="evenodd" clip-rule="evenodd" d="M0 1.22446H24V0.0869141H0V1.22446Z" fill="#D1272E"/>
<path id="Vector_14" fill-rule="evenodd" clip-rule="evenodd" d="M0 8.06841H10.9607V0.0869141H0V8.06841Z" fill="#243965"/>
<path id="Vector_15" fill-rule="evenodd" clip-rule="evenodd" d="M0.986844 0.96582L1.08292 1.27104H1.38848L1.14388 1.4559L1.23129 1.75216L0.986844 1.56698L0.751063 1.75216L0.83827 1.4559L0.602386 1.27104H0.899433L0.986844 0.96582Z" fill="#FEFEFE"/>
<path id="Vector_16" fill-rule="evenodd" clip-rule="evenodd" d="M0.986844 2.29785L1.08292 2.60307H1.38848L1.14388 2.78793L1.23129 3.08365L0.986844 2.89874L0.751063 3.08365L0.83827 2.78793L0.602386 2.60307H0.899433L0.986844 2.29785Z" fill="#FEFEFE"/>
<path id="Vector_17" fill-rule="evenodd" clip-rule="evenodd" d="M0.986844 3.62988L1.08292 3.9351H1.38848L1.14388 4.12012L1.23129 4.42535L0.986844 4.23109L0.751063 4.42535L0.83827 4.12012L0.602386 3.9351H0.899433L0.986844 3.62988Z" fill="#FEFEFE"/>
<path id="Vector_18" fill-rule="evenodd" clip-rule="evenodd" d="M0.986844 4.96143L1.08292 5.26665H1.38848L1.14388 5.45178L1.23129 5.757L0.986844 5.56291L0.751063 5.757L0.83827 5.45178L0.602386 5.26665H0.899433L0.986844 4.96143Z" fill="#FEFEFE"/>
<path id="Vector_19" fill-rule="evenodd" clip-rule="evenodd" d="M0.986844 6.29297L1.08292 6.59819H1.38848L1.14388 6.78321L1.23129 7.08843L0.986844 6.89391L0.751063 7.08843L0.83827 6.78321L0.602386 6.59819H0.899433L0.986844 6.29297Z" fill="#FEFEFE"/>
<path id="Vector_20" fill-rule="evenodd" clip-rule="evenodd" d="M1.86896 1.66895L1.95612 1.96477H2.26203L2.01733 2.15892L2.1048 2.45485L1.86896 2.26999L1.62426 2.45485L1.72029 2.15892L1.47589 1.96477H1.77278L1.86896 1.66895Z" fill="#FEFEFE"/>
<path id="Vector_21" fill-rule="evenodd" clip-rule="evenodd" d="M1.86896 3.00049L1.95612 3.2967H2.26203L2.01733 3.491L2.1048 3.78683L1.86896 3.60192L1.62426 3.78683L1.72029 3.491L1.47589 3.2967H1.77278L1.86896 3.00049Z" fill="#FEFEFE"/>
<path id="Vector_22" fill-rule="evenodd" clip-rule="evenodd" d="M1.86896 4.33252L1.95612 4.63774H2.26203L2.01733 4.82265L2.1048 5.11886L1.86896 4.93373L1.62426 5.11886L1.72029 4.82265L1.47589 4.63774H1.77278L1.86896 4.33252Z" fill="#FEFEFE"/>
<path id="Vector_23" fill-rule="evenodd" clip-rule="evenodd" d="M1.86896 5.66455L1.95612 5.96977H2.26203L2.01733 6.15463L2.1048 6.45062L1.86896 6.26544L1.62426 6.45062L1.72029 6.15463L1.47589 5.96977H1.77278L1.86896 5.66455Z" fill="#FEFEFE"/>
<path id="Vector_24" fill-rule="evenodd" clip-rule="evenodd" d="M2.75105 0.96582L2.84708 1.27104H3.14407L2.90829 1.4559L2.99545 1.75216L2.75105 1.56698L2.51527 1.75216L2.60243 1.4559L2.35803 1.27104H2.66364L2.75105 0.96582Z" fill="#FEFEFE"/>
<path id="Vector_25" fill-rule="evenodd" clip-rule="evenodd" d="M2.75105 2.29785L2.84708 2.60307H3.14407L2.90829 2.78793L2.99545 3.08365L2.75105 2.89874L2.51527 3.08365L2.60243 2.78793L2.35803 2.60307H2.66364L2.75105 2.29785Z" fill="#FEFEFE"/>
<path id="Vector_26" fill-rule="evenodd" clip-rule="evenodd" d="M2.75105 3.62988L2.84708 3.9351H3.14407L2.90829 4.12012L2.99545 4.42535L2.75105 4.23109L2.51527 4.42535L2.60243 4.12012L2.35803 3.9351H2.66364L2.75105 3.62988Z" fill="#FEFEFE"/>
<path id="Vector_27" fill-rule="evenodd" clip-rule="evenodd" d="M2.75105 4.96143L2.84708 5.26665H3.14407L2.90829 5.45178L2.99545 5.757L2.75105 5.56291L2.51527 5.757L2.60243 5.45178L2.35803 5.26665H2.66364L2.75105 4.96143Z" fill="#FEFEFE"/>
<path id="Vector_28" fill-rule="evenodd" clip-rule="evenodd" d="M2.75105 6.29297L2.84708 6.59819H3.14407L2.90829 6.78321L2.99545 7.08843L2.75105 6.89391L2.51527 7.08843L2.60243 6.78321L2.35803 6.59819H2.66364L2.75105 6.29297Z" fill="#FEFEFE"/>
<path id="Vector_29" fill-rule="evenodd" clip-rule="evenodd" d="M3.63314 1.66895L3.7205 1.96477H4.02616L3.78151 2.15892L3.86893 2.45485L3.63314 2.26999L3.38865 2.45485L3.48467 2.15892L3.24002 1.96477H3.53707L3.63314 1.66895Z" fill="#FEFEFE"/>
<path id="Vector_30" fill-rule="evenodd" clip-rule="evenodd" d="M3.63314 3.00049L3.7205 3.2967H4.02616L3.78151 3.491L3.86893 3.78683L3.63314 3.60192L3.38865 3.78683L3.48467 3.491L3.24002 3.2967H3.53707L3.63314 3.00049Z" fill="#FEFEFE"/>
<path id="Vector_31" fill-rule="evenodd" clip-rule="evenodd" d="M3.63314 4.33252L3.7205 4.63774H4.02616L3.78151 4.82265L3.86893 5.11886L3.63314 4.93373L3.38865 5.11886L3.48467 4.82265L3.24002 4.63774H3.53707L3.63314 4.33252Z" fill="#FEFEFE"/>
<path id="Vector_32" fill-rule="evenodd" clip-rule="evenodd" d="M3.63314 5.66455L3.7205 5.96977H4.02616L3.78151 6.15463L3.86893 6.45062L3.63314 6.26544L3.38865 6.45062L3.48467 6.15463L3.24002 5.96977H3.53707L3.63314 5.66455Z" fill="#FEFEFE"/>
<path id="Vector_33" fill-rule="evenodd" clip-rule="evenodd" d="M4.51517 0.96582L4.61125 1.27104H4.9082L4.6638 1.4559L4.75977 1.75216L4.51517 1.56698L4.27934 1.75216L4.3668 1.4559L4.13092 1.27104H4.42776L4.51517 0.96582Z" fill="#FEFEFE"/>
<path id="Vector_34" fill-rule="evenodd" clip-rule="evenodd" d="M4.51517 2.29785L4.61125 2.60307H4.9082L4.6638 2.78793L4.75977 3.08365L4.51517 2.89874L4.27934 3.08365L4.3668 2.78793L4.13092 2.60307H4.42776L4.51517 2.29785Z" fill="#FEFEFE"/>
<path id="Vector_35" fill-rule="evenodd" clip-rule="evenodd" d="M4.51517 3.62988L4.61125 3.9351H4.9082L4.6638 4.12012L4.75977 4.42535L4.51517 4.23109L4.27934 4.42535L4.3668 4.12012L4.13092 3.9351H4.42776L4.51517 3.62988Z" fill="#FEFEFE"/>
<path id="Vector_36" fill-rule="evenodd" clip-rule="evenodd" d="M4.51517 4.96143L4.61125 5.26665H4.9082L4.6638 5.45178L4.75977 5.757L4.51517 5.56291L4.27934 5.757L4.3668 5.45178L4.13092 5.26665H4.42776L4.51517 4.96143Z" fill="#FEFEFE"/>
<path id="Vector_37" fill-rule="evenodd" clip-rule="evenodd" d="M4.51517 6.29297L4.61125 6.59819H4.9082L4.6638 6.78321L4.75977 7.08843L4.51517 6.89391L4.27934 7.08843L4.3668 6.78321L4.13092 6.59819H4.42776L4.51517 6.29297Z" fill="#FEFEFE"/>
<path id="Vector_38" fill-rule="evenodd" clip-rule="evenodd" d="M5.39742 1.66895L5.48467 1.96477H5.79033L5.54589 2.15892L5.6331 2.45485L5.39742 2.26999L5.15282 2.45485L5.24889 2.15892L5.00424 1.96477H5.30124L5.39742 1.66895Z" fill="#FEFEFE"/>
<path id="Vector_39" fill-rule="evenodd" clip-rule="evenodd" d="M5.39742 3.00049L5.48467 3.2967H5.79033L5.54589 3.491L5.6331 3.78683L5.39742 3.60192L5.15282 3.78683L5.24889 3.491L5.00424 3.2967H5.30124L5.39742 3.00049Z" fill="#FEFEFE"/>
<path id="Vector_40" fill-rule="evenodd" clip-rule="evenodd" d="M5.39742 4.33252L5.48467 4.63774H5.79033L5.54589 4.82265L5.6331 5.11886L5.39742 4.93373L5.15282 5.11886L5.24889 4.82265L5.00424 4.63774H5.30124L5.39742 4.33252Z" fill="#FEFEFE"/>
<path id="Vector_41" fill-rule="evenodd" clip-rule="evenodd" d="M5.39742 5.66455L5.48467 5.96977H5.79033L5.54589 6.15463L5.6331 6.45062L5.39742 6.26544L5.15282 6.45062L5.24889 6.15463L5.00424 5.96977H5.30124L5.39742 5.66455Z" fill="#FEFEFE"/>
<path id="Vector_42" fill-rule="evenodd" clip-rule="evenodd" d="M6.27931 0.96582L6.37554 1.27104H6.67254L6.42794 1.4559L6.52391 1.75216L6.27931 1.56698L6.04368 1.75216L6.13094 1.4559L5.88629 1.27104H6.19216L6.27931 0.96582Z" fill="#FEFEFE"/>
<path id="Vector_43" fill-rule="evenodd" clip-rule="evenodd" d="M6.27931 2.29785L6.37554 2.60307H6.67254L6.42794 2.78793L6.52391 3.08365L6.27931 2.89874L6.04368 3.08365L6.13094 2.78793L5.88629 2.60307H6.19216L6.27931 2.29785Z" fill="#FEFEFE"/>
<path id="Vector_44" fill-rule="evenodd" clip-rule="evenodd" d="M6.27931 3.62988L6.37554 3.9351H6.67254L6.42794 4.12012L6.52391 4.42535L6.27931 4.23109L6.04368 4.42535L6.13094 4.12012L5.88629 3.9351H6.19216L6.27931 3.62988Z" fill="#FEFEFE"/>
<path id="Vector_45" fill-rule="evenodd" clip-rule="evenodd" d="M6.27931 4.96143L6.37554 5.26665H6.67254L6.42794 5.45178L6.52391 5.757L6.27931 5.56291L6.04368 5.757L6.13094 5.45178L5.88629 5.26665H6.19216L6.27931 4.96143Z" fill="#FEFEFE"/>
<path id="Vector_46" fill-rule="evenodd" clip-rule="evenodd" d="M6.27931 6.29297L6.37554 6.59819H6.67254L6.42794 6.78321L6.52391 7.08843L6.27931 6.89391L6.04368 7.08843L6.13094 6.78321L5.88629 6.59819H6.19216L6.27931 6.29297Z" fill="#FEFEFE"/>
<path id="Vector_47" fill-rule="evenodd" clip-rule="evenodd" d="M7.16142 1.66895L7.24878 1.96477H7.55465L7.31005 2.15892L7.39741 2.45485L7.16142 2.26999L6.91692 2.45485L7.013 2.15892L6.76855 1.96477H7.0654L7.16142 1.66895Z" fill="#FEFEFE"/>
<path id="Vector_48" fill-rule="evenodd" clip-rule="evenodd" d="M7.16142 3.00049L7.24878 3.2967H7.55465L7.31005 3.491L7.39741 3.78683L7.16142 3.60192L6.91692 3.78683L7.013 3.491L6.76855 3.2967H7.0654L7.16142 3.00049Z" fill="#FEFEFE"/>
<path id="Vector_49" fill-rule="evenodd" clip-rule="evenodd" d="M7.16142 4.33252L7.24878 4.63774H7.55465L7.31005 4.82265L7.39741 5.11886L7.16142 4.93373L6.91692 5.11886L7.013 4.82265L6.76855 4.63774H7.0654L7.16142 4.33252Z" fill="#FEFEFE"/>
<path id="Vector_50" fill-rule="evenodd" clip-rule="evenodd" d="M7.16142 5.66455L7.24878 5.96977H7.55465L7.31005 6.15463L7.39741 6.45062L7.16142 6.26544L6.91692 6.45062L7.013 6.15463L6.76855 5.96977H7.0654L7.16142 5.66455Z" fill="#FEFEFE"/>
<path id="Vector_51" fill-rule="evenodd" clip-rule="evenodd" d="M8.0437 0.96582L8.13967 1.27104H8.43667L8.20089 1.4559L8.28804 1.75216L8.0437 1.56698L7.80787 1.75216L7.89507 1.4559L7.65939 1.27104H7.95629L8.0437 0.96582Z" fill="#FEFEFE"/>
<path id="Vector_52" fill-rule="evenodd" clip-rule="evenodd" d="M8.0437 2.29785L8.13967 2.60307H8.43667L8.20089 2.78793L8.28804 3.08365L8.0437 2.89874L7.80787 3.08365L7.89507 2.78793L7.65939 2.60307H7.95629L8.0437 2.29785Z" fill="#FEFEFE"/>
<path id="Vector_53" fill-rule="evenodd" clip-rule="evenodd" d="M8.0437 3.62988L8.13967 3.9351H8.43667L8.20089 4.12012L8.28804 4.42535L8.0437 4.23109L7.80787 4.42535L7.89507 4.12012L7.65939 3.9351H7.95629L8.0437 3.62988Z" fill="#FEFEFE"/>
<path id="Vector_54" fill-rule="evenodd" clip-rule="evenodd" d="M8.0437 4.96143L8.13967 5.26665H8.43667L8.20089 5.45178L8.28804 5.757L8.0437 5.56291L7.80787 5.757L7.89507 5.45178L7.65939 5.26665H7.95629L8.0437 4.96143Z" fill="#FEFEFE"/>
<path id="Vector_55" fill-rule="evenodd" clip-rule="evenodd" d="M8.0437 6.29297L8.13967 6.59819H8.43667L8.20089 6.78321L8.28804 7.08843L8.0437 6.89391L7.80787 7.08843L7.89507 6.78321L7.65939 6.59819H7.95629L8.0437 6.29297Z" fill="#FEFEFE"/>
<path id="Vector_56" fill-rule="evenodd" clip-rule="evenodd" d="M8.9257 1.66895L9.01312 1.96477H9.31878L9.07418 2.15892L9.16154 2.45485L8.9257 2.26999L8.68111 2.45485L8.77713 2.15892L8.53268 1.96477H8.82973L8.9257 1.66895Z" fill="#FEFEFE"/>
<path id="Vector_57" fill-rule="evenodd" clip-rule="evenodd" d="M8.9257 3.00049L9.01312 3.2967H9.31878L9.07418 3.491L9.16154 3.78683L8.9257 3.60192L8.68111 3.78683L8.77713 3.491L8.53268 3.2967H8.82973L8.9257 3.00049Z" fill="#FEFEFE"/>
<path id="Vector_58" fill-rule="evenodd" clip-rule="evenodd" d="M8.9257 4.33252L9.01312 4.63774H9.31878L9.07418 4.82265L9.16154 5.11886L8.9257 4.93373L8.68111 5.11886L8.77713 4.82265L8.53268 4.63774H8.82973L8.9257 4.33252Z" fill="#FEFEFE"/>
<path id="Vector_59" fill-rule="evenodd" clip-rule="evenodd" d="M8.9257 5.66455L9.01312 5.96977H9.31878L9.07418 6.15463L9.16154 6.45062L8.9257 6.26544L8.68111 6.45062L8.77713 6.15463L8.53268 5.96977H8.82973L8.9257 5.66455Z" fill="#FEFEFE"/>
<path id="Vector_60" fill-rule="evenodd" clip-rule="evenodd" d="M9.80776 0.96582L9.90384 1.27104H10.2008L9.95639 1.4559L10.0522 1.75216L9.80776 1.56698L9.57198 1.75216L9.65939 1.4559L9.41479 1.27104H9.7204L9.80776 0.96582Z" fill="#FEFEFE"/>
<path id="Vector_61" fill-rule="evenodd" clip-rule="evenodd" d="M9.80776 2.29785L9.90384 2.60307H10.2008L9.95639 2.78793L10.0522 3.08365L9.80776 2.89874L9.57198 3.08365L9.65939 2.78793L9.41479 2.60307H9.7204L9.80776 2.29785Z" fill="#FEFEFE"/>
<path id="Vector_62" fill-rule="evenodd" clip-rule="evenodd" d="M9.80776 3.62988L9.90384 3.9351H10.2008L9.95639 4.12012L10.0522 4.42535L9.80776 4.23109L9.57198 4.42535L9.65939 4.12012L9.41479 3.9351H9.7204L9.80776 3.62988Z" fill="#FEFEFE"/>
<path id="Vector_63" fill-rule="evenodd" clip-rule="evenodd" d="M9.80776 4.96143L9.90384 5.26665H10.2008L9.95639 5.45178L10.0522 5.757L9.80776 5.56291L9.57198 5.757L9.65939 5.45178L9.41479 5.26665H9.7204L9.80776 4.96143Z" fill="#FEFEFE"/>
<path id="Vector_64" fill-rule="evenodd" clip-rule="evenodd" d="M9.80776 6.29297L9.90384 6.59819H10.2008L9.95639 6.78321L10.0522 7.08843L9.80776 6.89391L9.57198 7.08843L9.65939 6.78321L9.41479 6.59819H9.7204L9.80776 6.29297Z" fill="#FEFEFE"/>
</g>
</svg>
